<svg xmlns="http://www.w3.org/2000/svg" version="1.1" xmlns:xlink="http://www.w3.org/1999/xlink" xmlns:svgjs="http://svgjs.dev/svgjs" width="1440" height="560" preserveAspectRatio="none" viewBox="0 0 1440 560"><g mask="url(&quot;#SvgjsMask1000&quot;)" fill="none"><rect width="1440" height="560" x="0" y="0" fill="#1e3266"></rect><path d="M1536 560L0 560 L0 302Q97.14 279.14, 120 376.29Q140.45 324.74, 192 345.19Q229.55 262.74, 312 300.29Q381.69 249.99, 432 319.68Q489.07 304.75, 504 361.83Q528.86 314.69, 576 339.55Q597.66 289.21, 648 310.87Q702.09 244.96, 768 299.04Q835.69 294.73, 840 362.42Q877.85 280.27, 960 318.12Q979.93 266.06, 1032 285.99Q1120.32 254.31, 1152 342.62Q1178.45 297.07, 1224 323.52Q1273.49 253.01, 1344 302.5Q1397.56 284.06, 1416 337.61Q1482.53 284.14, 1536 350.68z" fill="#182f5d"></path><path d="M1560 560L0 560 L0 383.66Q75.44 339.1, 120 414.54Q168.97 391.51, 192 440.49Q218.37 346.86, 312 373.23Q340.45 329.68, 384 358.13Q478.67 332.8, 504 427.47Q518.95 370.43, 576 385.38Q623.46 360.84, 648 408.29Q688.95 329.24, 768 370.19Q796.78 326.97, 840 355.74Q901.33 345.07, 912 406.4Q980.23 354.63, 1032 422.86Q1079.44 398.3, 1104 445.74Q1108.42 378.16, 1176 382.58Q1205.33 339.9, 1248 369.23Q1339.29 340.52, 1368 431.81Q1387.67 379.49, 1440 399.16Q1508.47 347.63, 1560 416.11z" fill="#25467d"></path><path d="M1488 560L0 560 L0 423.24Q57.06 408.3, 72 465.35Q133.88 455.23, 144 517.1Q190.17 443.27, 264 489.44Q307.53 412.97, 384 456.5Q444.75 445.25, 456 505.99Q474.83 452.82, 528 471.65Q570.42 394.07, 648 436.5Q676.85 393.35, 720 422.2Q772.74 402.94, 792 455.68Q859.81 403.49, 912 471.29Q979.05 418.34, 1032 485.39Q1076.52 409.91, 1152 454.43Q1239.77 422.2, 1272 509.97Q1285.9 451.87, 1344 465.77Q1385.04 434.81, 1416 475.85Q1430.44 418.3, 1488 432.74z" fill="#356cb1"></path><path d="M1512 560L0 560 L0 579.4Q52.82 512.22, 120 565.05Q149.13 522.17, 192 551.3Q220.73 508.03, 264 536.76Q343.69 496.45, 384 576.15Q438.06 510.21, 504 564.27Q533.97 522.24, 576 552.2Q626.11 482.31, 696 532.42Q710.91 475.33, 768 490.24Q843.07 445.31, 888 520.38Q957.78 470.16, 1008 539.95Q1025.89 485.85, 1080 503.74Q1150.7 454.44, 1200 525.14Q1255.97 509.12, 1272 565.09Q1294.88 467.98, 1392 490.86Q1459.48 438.34, 1512 505.82z" fill="white"></path></g><defs><mask id="SvgjsMask1000"><rect width="1440" height="560" fill="#ffffff"></rect></mask></defs></svg>